<?xml version="1.0" encoding="utf-8"?><svg xmlns="http://www.w3.org/2000/svg" xmlns:xlink="http://www.w3.org/1999/xlink"><symbol viewBox="0 0 13 13" id="footer-icon" xmlns="http://www.w3.org/2000/svg"><path d="M12.4028 0.771393C12.4661 0.924726 12.4996 1.08658 12.4996 1.24991V7.91656C12.4996 8.60656 11.9396 9.16656 11.2496 9.16656C10.5596 9.16656 9.9996 8.60656 9.9996 7.91656V4.26831L2.13298 12.1349C1.88965 12.3783 1.5696 12.5015 1.2496 12.5015C0.929596 12.5015 0.609544 12.3799 0.366211 12.1349C-0.122122 11.6466 -0.122122 10.8548 0.366211 10.3665L8.23283 2.49991H4.58293C3.89293 2.49991 3.33293 1.93991 3.33293 1.24991C3.33293 0.559908 3.89293 -9.15527e-05 4.58293 -9.15527e-05H11.2496C11.4129 -9.15527e-05 11.5748 0.0334379 11.7281 0.0967712C12.0331 0.223438 12.2761 0.466393 12.4028 0.771393Z"/></symbol><symbol viewBox="0 0 20 20" id="social-01" xmlns="http://www.w3.org/2000/svg"><rect id="bsocial-01" width="20.000000" height="20.000000" x="0.000000" y="0.000000" fill-opacity="0"/><path id="bVector" d="M6.2918 18.1256C13.8371 18.1256 17.9652 11.8729 17.9652 6.45216C17.9652 6.27638 17.9613 6.09669 17.9535 5.92091C18.7566 5.34016 19.4496 4.62082 20 3.79669C19.2521 4.12944 18.458 4.34676 17.6449 4.44122C18.5011 3.92803 19.1421 3.12184 19.4492 2.17208C18.6438 2.64941 17.763 2.98612 16.8445 3.16779C16.2257 2.51024 15.4075 2.07487 14.5164 1.92899C13.6253 1.7831 12.711 1.93482 11.9148 2.36069C11.1186 2.78656 10.4848 3.46286 10.1115 4.28504C9.73825 5.10721 9.64619 6.02946 9.84961 6.90919C8.21874 6.82735 6.62328 6.4037 5.16665 5.66569C3.71002 4.92769 2.42474 3.89181 1.39414 2.62521C0.870333 3.52831 0.710047 4.59698 0.945859 5.61402C1.18167 6.63106 1.79589 7.52015 2.66367 8.1006C2.01219 8.07991 1.37498 7.90451 0.804688 7.58888L0.804688 7.63966C0.804104 8.5874 1.13175 9.5061 1.73192 10.2396C2.3321 10.9731 3.16777 11.4761 4.09687 11.6631C3.49338 11.8282 2.85998 11.8523 2.2457 11.7334C2.50788 12.5485 3.01798 13.2614 3.70481 13.7726C4.39164 14.2838 5.22093 14.5678 6.07695 14.585C4.62369 15.7265 2.82848 16.3457 0.980469 16.3428C0.652739 16.3423 0.325333 16.3222 0 16.2826C1.87738 17.4871 4.06128 18.1268 6.2918 18.1256Z" fill-rule="nonzero"/></symbol><symbol viewBox="0 0 20 20" id="social-02" xmlns="http://www.w3.org/2000/svg"><rect id="csocial-02" width="20.000000" height="20.000000" x="0.000000" y="0.000000" fill-opacity="0"/><g id="cGroup"><path id="cVector" d="M18.5195 0L1.47656 0C0.660156 0 0 0.644531 0 1.44141L0 18.5547C0 19.3516 0.660156 20 1.47656 20L18.5195 20C19.3359 20 20 19.3516 20 18.5586L20 1.44141C20 0.644531 19.3359 0 18.5195 0ZM5.93359 17.043L2.96484 17.043L2.96484 7.49609L5.93359 7.49609L5.93359 17.043ZM4.44922 6.19531C3.49609 6.19531 2.72656 5.42578 2.72656 4.47656C2.72656 3.52734 3.49609 2.75781 4.44922 2.75781C5.39844 2.75781 6.16797 3.52734 6.16797 4.47656C6.16797 5.42187 5.39844 6.19531 4.44922 6.19531ZM17.043 17.043L14.0781 17.043L14.0781 12.4023C14.0781 11.2969 14.0586 9.87109 12.5352 9.87109C10.9922 9.87109 10.7578 11.0781 10.7578 12.3242L10.7578 17.043L7.79688 17.043L7.79688 7.49609L10.6406 7.49609L10.6406 8.80078L10.6797 8.80078C11.0742 8.05078 12.043 7.25781 13.4844 7.25781C16.4883 7.25781 17.043 9.23438 17.043 11.8047L17.043 17.043Z" fill-rule="nonzero"/></g></symbol><symbol viewBox="0 0 20 20" id="social-03" xmlns="http://www.w3.org/2000/svg"><rect id="dsocial-03" width="20.000000" height="20.000000" x="0.000000" y="0.000000" fill-opacity="0"/><path id="dVector" d="M20 10C20 4.47715 15.5229 0 10 0C4.47715 0 0 4.47715 0 10C0 14.9912 3.65684 19.1283 8.4375 19.8785L8.4375 12.8906L5.89844 12.8906L5.89844 10L8.4375 10L8.4375 7.79688C8.4375 5.29063 9.93047 3.90625 12.2146 3.90625C13.3084 3.90625 14.4531 4.10156 14.4531 4.10156L14.4531 6.5625L13.1922 6.5625C11.95 6.5625 11.5625 7.3334 11.5625 8.125L11.5625 10L14.3359 10L13.8926 12.8906L11.5625 12.8906L11.5625 19.8785C16.3432 19.1283 20 14.9912 20 10Z" fill-rule="nonzero"/></symbol><symbol viewBox="0 0 20 20" id="social-04" xmlns="http://www.w3.org/2000/svg"><rect id="esocial-04" width="20.000000" height="20.000000" x="0.000000" y="0.000000" fill-opacity="0"/><path id="eVector" d="M10 0C4.47939 0 0 4.47939 0 10C0 15.5206 4.47939 20 10 20C15.5098 20 20 15.5206 20 10C20 4.47939 15.5098 0 10 0ZM16.6052 4.60954C17.7983 6.06291 18.5141 7.91756 18.5358 9.92406C18.2538 9.86987 15.4338 9.295 12.5922 9.65294C12.5271 9.51194 12.4729 9.36006 12.4078 9.20825C12.2343 8.79613 12.0391 8.37313 11.8438 7.97181C14.9891 6.692 16.4208 4.84816 16.6052 4.60954ZM10 1.47506C12.1692 1.47506 14.154 2.28851 15.6616 3.62256C15.5098 3.83948 14.2191 5.56399 11.1822 6.70281C9.78306 4.13232 8.23213 2.0282 7.9935 1.70282C8.63338 1.55097 9.30587 1.47506 10 1.47506ZM6.36662 2.27766C6.59437 2.58134 8.11281 4.69631 9.53363 7.21256C5.5423 8.2755 2.01736 8.25381 1.63774 8.25381C2.19089 5.60738 3.98047 3.40564 6.36662 2.27766ZM1.45336 10.0109C1.45336 9.92406 1.45336 9.83731 1.45336 9.75056C1.82213 9.76138 5.96529 9.81563 10.2278 8.53581C10.4773 9.013 10.705 9.50106 10.9219 9.98913C10.8134 10.0217 10.6941 10.0542 10.5857 10.0868C6.18221 11.5076 3.83948 15.3904 3.64425 15.7158C2.2885 14.2083 1.45336 12.2018 1.45336 10.0109ZM10 18.5466C8.026 18.5466 6.20391 17.8742 4.76139 16.7462C4.91323 16.4317 6.64856 13.0911 11.4642 11.41C11.4859 11.3991 11.4968 11.3991 11.5184 11.3883C12.7223 14.5011 13.2104 17.1149 13.3406 17.8633C12.3102 18.308 11.1822 18.5466 10 18.5466ZM14.7614 17.0824C14.6746 16.5618 14.2191 14.0672 13.1019 10.9978C15.7809 10.5748 18.1236 11.269 18.4165 11.3666C18.0478 13.7419 16.6811 15.7917 14.7614 17.0824Z" fill-rule="evenodd"/></symbol></svg>