<?xml version="1.0" encoding="utf-8"?><svg viewBox="0 0 20 20" xmlns="http://www.w3.org/2000/svg" xmlns:xlink="http://www.w3.org/1999/xlink"><style>:root>svg{display:none}:root>svg:target{display:block}</style><svg fill="none" viewBox="0 0 13 13" id="footer-icon" xmlns="http://www.w3.org/2000/svg"><path d="M12.403.771c.063.154.097.316.097.479v6.667a1.25 1.25 0 0 1-2.5 0V4.268l-7.867 7.867a1.247 1.247 0 0 1-1.767 0 1.25 1.25 0 0 1 0-1.768L8.233 2.5h-3.65a1.25 1.25 0 0 1 0-2.5h6.667a1.252 1.252 0 0 1 1.153.771Z" fill="#161616"/></svg><svg fill="none" viewBox="0 0 20 20" id="social-01" xmlns="http://www.w3.org/2000/svg"><path fill="none" d="M0 0h20v20H0z"/><path d="M6.292 18.126c7.545 0 11.673-6.253 11.673-11.674 0-.176-.004-.355-.012-.531A8.332 8.332 0 0 0 20 3.797a8.09 8.09 0 0 1-2.355.644 4.125 4.125 0 0 0 1.804-2.269 8.247 8.247 0 0 1-2.605.996A4.108 4.108 0 0 0 9.85 6.909a11.654 11.654 0 0 1-8.456-4.284 4.108 4.108 0 0 0 1.27 5.476 4.108 4.108 0 0 1-1.86-.512v.05a4.102 4.102 0 0 0 3.293 4.024 4.078 4.078 0 0 1-1.851.07 4.111 4.111 0 0 0 3.831 2.852A8.23 8.23 0 0 1 0 16.283a11.64 11.64 0 0 0 6.292 1.843Z" fill="#161616"/></svg><svg fill="none" viewBox="0 0 20 20" id="social-02" xmlns="http://www.w3.org/2000/svg"><path fill="none" d="M0 0h20v20H0z"/><path d="M18.52 0H1.477C.66 0 0 .645 0 1.441v17.114C0 19.352.66 20 1.477 20H18.52c.816 0 1.48-.648 1.48-1.441V1.44C20 .645 19.336 0 18.52 0ZM5.934 17.043h-2.97V7.496h2.97v9.547ZM4.449 6.195a1.72 1.72 0 1 1-.006-3.439 1.72 1.72 0 0 1 .006 3.44Zm12.594 10.848h-2.965v-4.64c0-1.106-.02-2.532-1.543-2.532-1.543 0-1.777 1.207-1.777 2.453v4.719H7.797V7.496h2.844v1.305h.039c.394-.75 1.363-1.543 2.804-1.543 3.004 0 3.559 1.976 3.559 4.547v5.238Z" fill="#161616"/></svg><svg fill="none" viewBox="0 0 20 20" id="social-03" xmlns="http://www.w3.org/2000/svg"><path fill="none" d="M0 0h20v20H0z"/><path d="M20 10c0-5.523-4.477-10-10-10S0 4.477 0 10c0 4.991 3.657 9.128 8.438 9.878v-6.987h-2.54V10h2.54V7.797c0-2.506 1.492-3.89 3.777-3.89 1.093 0 2.238.195 2.238.195v2.46h-1.26c-1.243 0-1.63.771-1.63 1.563V10h2.773l-.443 2.89h-2.33v6.988C16.343 19.128 20 14.991 20 10Z" fill="#161616"/></svg><svg fill="none" viewBox="0 0 20 20" id="social-04" xmlns="http://www.w3.org/2000/svg"><path fill="none" d="M0 0h20v20H0z"/><path d="M10 0C4.48 0 0 4.48 0 10s4.48 10 10 10c5.51 0 10-4.48 10-10S15.51 0 10 0Zm6.605 4.61a8.502 8.502 0 0 1 1.93 5.314c-.281-.054-3.101-.629-5.943-.271-.065-.141-.12-.293-.184-.445a25.322 25.322 0 0 0-.564-1.236c3.145-1.28 4.577-3.124 4.761-3.362ZM10 1.475c2.17 0 4.154.814 5.662 2.148-.152.216-1.443 1.941-4.48 3.08-1.399-2.57-2.95-4.675-3.189-5A8.686 8.686 0 0 1 10 1.475Zm-3.633.803a53.902 53.902 0 0 1 3.167 4.935c-3.992 1.062-7.517 1.04-7.896 1.04a8.581 8.581 0 0 1 4.729-5.975ZM1.453 10.01v-.26c.37.01 4.512.065 8.775-1.215.25.477.477.965.694 1.453-.109.033-.228.065-.336.098-4.404 1.42-6.747 5.303-6.942 5.629a8.521 8.521 0 0 1-2.19-5.705ZM10 18.547a8.482 8.482 0 0 1-5.239-1.8c.152-.315 1.888-3.656 6.703-5.337.022-.01.033-.01.054-.022a35.316 35.316 0 0 1 1.823 6.475 8.4 8.4 0 0 1-3.341.684Zm4.761-1.465c-.086-.52-.542-3.015-1.66-6.084 2.68-.423 5.023.271 5.315.369a8.468 8.468 0 0 1-3.655 5.715Z" fill="#161616" fill-rule="evenodd"/></svg></svg>