<svg viewBox="0 0 24 24" xmlns="http://www.w3.org/2000/svg" xmlns:xlink="http://www.w3.org/1999/xlink" width="24.000000" height="24.000000" fill="none">
	<rect id="mynaui:play-solid" width="24.000000" height="24.000000" x="0.000000" y="0.000000" fill="rgb(255,255,255)" fill-opacity="0" />
	<path id="Vector" d="M12.503 7.01166L12.437 6.97166C11.689 6.51666 11.031 6.11566 10.467 5.91366C10.1561 5.79417 9.8237 5.7407 9.491 5.75666C9.14078 5.7834 8.80602 5.91201 8.528 6.12666C7.949 6.56066 7.699 7.19966 7.562 7.90666C7.429 8.59166 7.378 9.48366 7.315 10.5697L7.312 10.6257C7.274 11.2757 7.25 11.9187 7.25 12.5017C7.25 13.0847 7.274 13.7287 7.312 14.3787L7.315 14.4337C7.378 15.5197 7.429 16.4117 7.562 17.0957C7.699 17.8037 7.949 18.4417 8.528 18.8767C8.814 19.0917 9.135 19.2197 9.491 19.2467C9.833 19.2717 10.161 19.1997 10.467 19.0897C11.031 18.8877 11.689 18.4867 12.437 18.0327L12.503 17.9927C12.929 17.7327 13.347 17.4657 13.72 17.2027C14.1768 16.8777 14.6221 16.5368 15.055 16.1807L15.105 16.1397C15.869 15.5167 16.517 14.9877 16.965 14.4677C17.453 13.8977 17.75 13.2857 17.75 12.5017C17.75 11.7177 17.453 11.1047 16.964 10.5357C16.517 10.0157 15.869 9.48566 15.106 8.86366L15.056 8.82266C14.602 8.45266 14.146 8.09866 13.72 7.80066C13.3227 7.5246 12.9169 7.26113 12.503 7.01066" fill="rgb(255,255,255)" fill-rule="nonzero" />
</svg>
