<svg viewBox="0 0 40 40" xmlns="http://www.w3.org/2000/svg" xmlns:xlink="http://www.w3.org/1999/xlink" width="40.000000" height="40.000000" fill="none" customFrame="#000000">
	<g id="Right">
		<circle id="Ellipse 1" cx="20" cy="20" r="19.5" stroke="rgb(22,22,22)" stroke-width="1" transform="matrix(-1,0,0,1,40,0)" />
		<g id="weui:arrow-outlined" clip-path="url(#clipPath_2)" customFrame="url(#clipPath_2)">
			<rect id="weui:arrow-outlined" width="12.000000" height="24.000000" x="14.000000" y="8.000000" fill="rgb(255,255,255)" fill-opacity="0" />
			<path id="Vector" d="M7.13395 11.91L6.07295 12.97L0.29395 7.193C0.200796 7.10043 0.126867 6.99036 0.0764193 6.86911C0.0259713 6.74786 0 6.61783 0 6.4865C-5.55112e-17 6.35517 0.0259713 6.22514 0.0764193 6.10389C0.126867 5.98264 0.200796 5.87257 0.29395 5.78L6.07295 0L7.13295 1.06L1.70895 6.485L7.13395 11.91Z" fill="rgb(22,22,22)" fill-rule="nonzero" transform="matrix(-1,-1.22465e-16,1.22465e-16,-1,23.5859,26.49)" />
		</g>
	</g>
</svg>
