<svg viewBox="0 0 23.9995 26.0212" xmlns="http://www.w3.org/2000/svg" xmlns:xlink="http://www.w3.org/1999/xlink" width="23.999451" height="26.021202" fill="none" customFrame="#000000">
	<g id="Leaf">
		<path id="Vector" d="M1.40529 26.0212C0.838249 26.0212 0.323954 25.6783 0.107686 25.1535C-0.11122 24.6286 0.0101012 24.022 0.410988 23.6211L8.05949 15.9726C8.61071 15.4241 9.49952 15.4241 10.0481 15.9726C10.5993 16.5212 10.5993 17.4127 10.0481 17.9613L2.3996 25.6098C2.13849 25.8735 1.77981 26.0212 1.40529 26.0212Z" fill="rgb(237,149,43)" fill-rule="nonzero" />
		<path id="Vector" d="M23.923 0.0769454L3.92353 20.0738C-0.254133 15.8962 -0.254133 9.12064 3.92353 4.94034C9.86826 -1.0044 23.923 0.0769454 23.923 0.0769454Z" fill="rgb(254,200,110)" fill-rule="nonzero" />
		<path id="Vector" d="M19.0565 20.073C14.8789 24.2533 8.10334 24.2533 3.92303 20.073L23.9225 0.0761719C23.9225 0.0761719 25.0039 14.1283 19.0565 20.073Z" fill="rgb(237,149,43)" fill-rule="nonzero" />
	</g>
</svg>
